<svg xmlns="http://www.w3.org/2000/svg" data-name="Layer 1" viewBox="0 0 512 512" id="national-emblem"><path d="m225.385 55.496 5.499-4.3a7.865 7.865 0 0 1 9.59-.068l1.878 1.425a5.236 5.236 0 0 1 1.302 6.93 8.18 8.18 0 0 0 .29 8.994l3.679 5.216a10.255 10.255 0 0 0 4.877 3.72v10.034a16.662 16.662 0 0 1-10.298 7.16q-.474.093-.953.153a9.966 9.966 0 0 1-10.262-5.541 10.446 10.446 0 0 1 1.59-12.124 3.5 3.5 0 1 0-5.123-4.77 17.476 17.476 0 0 0-2.697 20.085 17.108 17.108 0 0 0 11.518 9.02 20.4 20.4 0 0 0 18.7 16.448q.553.031 1.1.031a20.544 20.544 0 0 0 19.872-16.48 16.84 16.84 0 0 0 11.343-9.015 17.637 17.637 0 0 0-2.808-20.232 3.5 3.5 0 0 0-5.117 4.776 10.598 10.598 0 0 1 1.687 12.281 9.953 9.953 0 0 1-10.241 5.53 14.565 14.565 0 0 1-1.014-.161 16.661 16.661 0 0 1-10.297-7.161V77.412a10.254 10.254 0 0 0 4.877-3.719l3.679-5.216a8.18 8.18 0 0 0 .29-8.995 5.236 5.236 0 0 1 1.301-6.93l1.88-1.424a7.864 7.864 0 0 1 9.59.069l5.498 4.3a3.5 3.5 0 0 0 4.31-5.516l-5.498-4.299a14.867 14.867 0 0 0-18.132-.13l-1.879 1.425a12.214 12.214 0 0 0-3.039 16.163 1.183 1.183 0 0 1-.042 1.303l-3.679 5.216a3.25 3.25 0 0 1-5.312 0l-3.679-5.216a1.182 1.182 0 0 1-.042-1.302 12.214 12.214 0 0 0-3.04-16.164l-1.877-1.425a14.87 14.87 0 0 0-18.133.13l-5.499 4.3a3.5 3.5 0 0 0 4.31 5.514ZM256 94.268a22.812 22.812 0 0 0 12.459 7.21c.08.016.16.024.24.039a13.393 13.393 0 0 1-13.336 9.372 13.536 13.536 0 0 1-11.845-9.407l.021-.003A22.821 22.821 0 0 0 256 94.268Zm-85.062 118.068a12.014 12.014 0 0 0-2.573-16.774 3.5 3.5 0 0 0-4.142 5.643 5 5 0 0 1-5.916 8.063 3.5 3.5 0 0 0-4.143 5.642 12.01 12.01 0 0 0 16.774-2.574Zm-7.536-62.796a12.12 12.12 0 0 0 1.786.132 12.003 12.003 0 0 0 9.615-19.15 3.5 3.5 0 1 0-5.623 4.17 5 5 0 0 1-8.033 5.956 3.5 3.5 0 1 0-5.623 4.17 11.923 11.923 0 0 0 7.878 4.722Zm3.223 30.302a12.001 12.001 0 0 0-2.42-16.798 3.5 3.5 0 1 0-4.193 5.605 5 5 0 1 1-5.991 8.007 3.5 3.5 0 1 0-4.194 5.605 12.012 12.012 0 0 0 16.798-2.42Zm185.759 29.425a5 5 0 1 1-5.917-8.062 3.5 3.5 0 1 0-4.143-5.642 12 12 0 0 0 5.28 21.535 12.15 12.15 0 0 0 1.846.141 11.91 11.91 0 0 0 7.074-2.328 3.5 3.5 0 0 0-4.14-5.644ZM256 189.5a12.013 12.013 0 0 0 12-12 3.5 3.5 0 0 0-7 0 5 5 0 0 1-10 0 3.5 3.5 0 0 0-7 0 12.013 12.013 0 0 0 12 12Zm100.668-12.844a5 5 0 0 1-5.991-8.007 3.5 3.5 0 1 0-4.194-5.605 12 12 0 1 0 14.378 19.217 3.5 3.5 0 1 0-4.193-5.605Zm27.375-41.646a18.622 18.622 0 0 0 14.176-6.534l18.85-22.03a18.693 18.693 0 0 0-1.106-25.433l-4.795-4.71-.547-7.775a21.247 21.247 0 0 0-18.704-19.604l-3.162-.37a14.15 14.15 0 0 1-9.322-5.079l-8.963-10.882a25.167 25.167 0 0 0-26.701-8.104l-27.378 8.27A29.716 29.716 0 0 0 287.663 10.5h-63.326a29.713 29.713 0 0 0-28.664 22.035l-27.448-8.048a25.168 25.168 0 0 0-26.697 8.108l-8.96 10.88a14.154 14.154 0 0 1-9.325 5.079l-3.163.37a21.247 21.247 0 0 0-18.701 19.6l-.547 7.778-4.792 4.709a18.693 18.693 0 0 0-1.11 25.434l18.85 22.029a18.628 18.628 0 0 0 23.55 4.002l5.365-3.12-10.029 44.585a58.63 58.63 0 0 0 9.2 46.499l18.85 26.882a16.456 16.456 0 0 0 6.264 5.32v81.168a9.597 9.597 0 0 1-6.836 9.224l-5.476 1.679a16.559 16.559 0 0 0-11.788 15.917v8.87h-3.746a28.666 28.666 0 0 0-28.634 28.634v53.732a28.661 28.661 0 0 0 28 28.618V484a17.52 17.52 0 0 0 17.5 17.5h200a17.52 17.52 0 0 0 17.5-17.5v-3.516a28.661 28.661 0 0 0 28-28.618v-53.732a28.666 28.666 0 0 0-28.634-28.634h-3.746v-8.87a16.558 16.558 0 0 0-11.787-15.917l-5.59-1.71a9.456 9.456 0 0 1-6.723-9.093v-81.268a16.459 16.459 0 0 0 6.265-5.322l18.849-26.878a58.636 58.636 0 0 0 9.201-46.5l-10.03-44.585 5.364 3.118a18.592 18.592 0 0 0 9.374 2.535Zm11.021-13.614-16.999-13.115a2.923 2.923 0 0 1-.19-4.47l5.69-5.218a2.934 2.934 0 0 1 3.99.033l14.896 14.137Zm-193.39-81.233A22.689 22.689 0 0 1 224.337 17.5h63.326a22.689 22.689 0 0 1 22.663 22.663v32.36a61.54 61.54 0 0 1-24.159 48.717 38.793 38.793 0 0 1-23.344 7.867h-13.646a38.793 38.793 0 0 1-23.344-7.867 61.54 61.54 0 0 1-24.16-48.718ZM306.812 349.73l5.13 6.441a9.845 9.845 0 0 1 1.525 9.496l-1.415 3.833h-42.038l-1.496-3.476a9.747 9.747 0 0 1 1.518-10.188l4.998-5.928a16.697 16.697 0 0 0 3.928-11.987l-4.86-70.958 34.674-15.06-5.59 86.285a16.757 16.757 0 0 0 3.627 11.542Zm-97.65-11.81-5.896-85.995 34.732 15.081-4.611 71.182a16.757 16.757 0 0 0 3.626 11.542l5.13 6.441a9.85 9.85 0 0 1 1.524 9.496l-1.415 3.833h-42.038l-1.496-3.477a9.746 9.746 0 0 1 1.517-10.187l4.998-5.927a16.692 16.692 0 0 0 3.93-11.988Zm52.923 30.864.308.716h-12.68l.52-1.408a16.885 16.885 0 0 0-2.616-16.282l-5.132-6.444a9.77 9.77 0 0 1-2.112-6.73l4.467-68.962a38.707 38.707 0 0 0 22.428-.03l4.71 68.76a9.734 9.734 0 0 1-2.293 6.99l-4.997 5.925a16.71 16.71 0 0 0-2.603 17.465Zm-9.585 7.856v34.305a14.342 14.342 0 0 0-1.936.622l-20.15-27.744a48.16 48.16 0 0 1 22.086-7.183Zm-7.597 39.045a14.565 14.565 0 0 0-1.184 1.643l-32.633-10.604a48.718 48.718 0 0 1 13.67-18.78Zm-3.351 8.3c-.024.336-.052.672-.052 1.015s.028.679.052 1.016l-32.635 10.604a48.356 48.356 0 0 1 0-23.24Zm2.167 8.687a14.565 14.565 0 0 0 1.184 1.643l-20.146 27.74a48.718 48.718 0 0 1-13.67-18.78Zm6.845 5.76a14.342 14.342 0 0 0 1.936.623v34.305a48.16 48.16 0 0 1-22.085-7.183ZM248.5 425a7.5 7.5 0 1 1 7.5 7.5 7.508 7.508 0 0 1-7.5-7.5Zm11 14.055a14.342 14.342 0 0 0 1.936-.622l20.15 27.744a48.16 48.16 0 0 1-22.086 7.183Zm7.597-4.74a14.565 14.565 0 0 0 1.184-1.643l32.633 10.604a48.718 48.718 0 0 1-13.67 18.78Zm3.351-8.3c.024-.336.052-.672.052-1.015s-.028-.679-.052-1.016l32.635-10.604a48.356 48.356 0 0 1 0 23.24Zm-2.167-8.687a14.565 14.565 0 0 0-1.184-1.643l20.146-27.74a48.718 48.718 0 0 1 13.67 18.78Zm-6.845-5.76a14.342 14.342 0 0 0-1.936-.623V376.64a48.16 48.16 0 0 1 22.085 7.183Zm7.19-149.859a31.824 31.824 0 0 1-25.252 0l-45.3-19.67a7.482 7.482 0 0 1-4.33-5.289l-8.53-40.018a43.015 43.015 0 0 1 2.362-25.568l22.75-55.206a67.562 67.562 0 0 0 11.27 10.854 45.828 45.828 0 0 0 27.58 9.295h13.647a45.828 45.828 0 0 0 27.58-9.294 67.568 67.568 0 0 0 11.366-10.971l22.62 55.113a42.915 42.915 0 0 1 2.378 25.51l-8.522 40.285a7.443 7.443 0 0 1-4.33 5.29ZM109.549 112.763l14.896-14.136a2.933 2.933 0 0 1 3.99-.034l5.69 5.219a2.923 2.923 0 0 1-.19 4.469l-17 13.115Zm24.26 13.662a11.628 11.628 0 0 1-11.832-.078l16.235-12.524a9.924 9.924 0 0 0 .643-15.171l-5.69-5.218a9.956 9.956 0 0 0-13.538.115l-14.635 13.888-4.744-5.543a11.676 11.676 0 0 1 .695-15.888l5.74-5.64a3.498 3.498 0 0 0 1.039-2.25l.64-9.104a14.241 14.241 0 0 1 12.535-13.136l3.159-.37a21.176 21.176 0 0 0 7.941-2.586l.52.332a30.328 30.328 0 0 1 10.27 10.978l16.27 29.72a10.577 10.577 0 0 1-1.382 12.092l-12.03 13.503Zm32.636 116.876-18.85-26.883a51.622 51.622 0 0 1-8.1-40.94l11.589-51.515L162.9 110.7a17.591 17.591 0 0 0 2.298-20.11l-16.271-29.722a37.37 37.37 0 0 0-11.28-12.586c.106-.122.222-.232.325-.357l8.959-10.878a18.187 18.187 0 0 1 19.304-5.849l28.455 8.343c-.005.207-.016.413-.016.622v32.36a68.465 68.465 0 0 0 10.821 36.784l-24.388 59.18a49.982 49.982 0 0 0-2.74 29.702l8.53 40.022c.043.2.112.39.163.587l-6.381 5.976a9.484 9.484 0 0 1-14.234-1.473ZM149.88 360.63a9.597 9.597 0 0 1 6.837-9.224l5.475-1.679a16.559 16.559 0 0 0 11.788-15.917v-79.492c.076 0 .152.012.228.012a16.471 16.471 0 0 0 11.255-4.445l5.094-4.77a14.414 14.414 0 0 0 4.73 3.345l.746.325 6.146 89.618a9.73 9.73 0 0 1-2.295 6.99l-4.996 5.926a16.708 16.708 0 0 0-2.603 17.465l.309.716H149.88ZM139.134 473.5a21.659 21.659 0 0 1-21.634-21.634v-53.732a21.659 21.659 0 0 1 21.634-21.634h89.935a55.854 55.854 0 0 0-5.396 3.43c-.096.056-.197.101-.29.168-.075.055-.134.123-.205.183a55.717 55.717 0 0 0-19.939 27.525c-.005.015-.013.028-.018.043-.004.011-.004.023-.008.035a55.347 55.347 0 0 0 0 34.232c.004.012.004.024.008.035.006.02.016.036.023.055a55.718 55.718 0 0 0 19.935 27.513c.07.06.129.128.205.183a3.472 3.472 0 0 0 .367.224 55.826 55.826 0 0 0 5.316 3.374ZM366.5 484a10.512 10.512 0 0 1-10.5 10.5H156a10.512 10.512 0 0 1-10.5-10.5v-3.5h221Zm6.366-107.5a21.659 21.659 0 0 1 21.634 21.634v53.732a21.659 21.659 0 0 1-21.634 21.634h-89.933a55.826 55.826 0 0 0 5.316-3.374 3.472 3.472 0 0 0 .367-.224c.076-.055.135-.123.206-.183a55.718 55.718 0 0 0 19.934-27.513c.007-.019.017-.036.023-.055.004-.011.004-.023.008-.035a55.347 55.347 0 0 0 0-34.232c-.004-.012-.004-.024-.008-.035-.005-.016-.013-.028-.018-.043a55.717 55.717 0 0 0-19.94-27.525c-.07-.06-.129-.128-.205-.183-.092-.067-.192-.111-.288-.168a55.86 55.86 0 0 0-5.397-3.43Zm-23.17-26.803 5.591 1.71a9.596 9.596 0 0 1 6.833 9.223v8.87h-42.606l.52-1.407a16.885 16.885 0 0 0-2.617-16.283l-5.132-6.444a9.77 9.77 0 0 1-2.112-6.73l5.82-89.867.706-.307a14.403 14.403 0 0 0 4.742-3.35l5.097 4.774a16.467 16.467 0 0 0 11.254 4.444c.076 0 .152-.011.228-.012v79.592a16.419 16.419 0 0 0 11.676 15.787Zm22.81-174.218a51.627 51.627 0 0 1-8.102 40.941l-18.848 26.878a9.483 9.483 0 0 1-14.234 1.477l-6.391-5.986c.05-.2.12-.392.163-.595l8.52-40.278a49.881 49.881 0 0 0-2.756-29.635l-24.263-59.118a68.458 68.458 0 0 0 10.731-36.64v-32.36c0-.125-.008-.248-.01-.372l28.47-8.599a18.175 18.175 0 0 1 19.281 5.853l8.962 10.881c.103.125.219.235.324.357a37.37 37.37 0 0 0-11.28 12.586L346.801 90.59a17.589 17.589 0 0 0 2.297 20.108l11.817 13.265Zm-6.15-55.934-12.032-13.504a10.575 10.575 0 0 1-1.382-12.09l16.27-29.72a30.33 30.33 0 0 1 10.272-10.98l.519-.33a21.173 21.173 0 0 0 7.94 2.585l3.157.37a14.242 14.242 0 0 1 12.539 13.14l.64 9.1a3.498 3.498 0 0 0 1.037 2.25l5.744 5.643a11.676 11.676 0 0 1 .691 15.886l-4.743 5.543-14.635-13.89a9.957 9.957 0 0 0-13.538-.114l-5.69 5.217a9.924 9.924 0 0 0 .644 15.172l16.234 12.524a11.631 11.631 0 0 1-11.835.077Zm23.994-38.528a3.489 3.489 0 0 0 2.444-.995l4.317-4.213a3.5 3.5 0 1 0-4.888-5.01l-4.318 4.213a3.5 3.5 0 0 0 2.445 6.005Zm-45.538 68.655a12.13 12.13 0 0 0 1.786-.132 11.923 11.923 0 0 0 7.878-4.723 3.5 3.5 0 1 0-5.623-4.169 5 5 0 1 1-8.033-5.957 3.5 3.5 0 1 0-5.623-4.169 12.003 12.003 0 0 0 9.615 19.15ZM243.5 202a3.5 3.5 0 0 0-3.5 3.5 5 5 0 0 1-10 0 3.5 3.5 0 0 0-7 0 12 12 0 0 0 24 0 3.5 3.5 0 0 0-3.5-3.5ZM233 177.5a3.5 3.5 0 0 0-7 0 5 5 0 0 1-10 0 3.5 3.5 0 0 0-7 0 12 12 0 0 0 24 0Zm31.5 52.5a3.5 3.5 0 0 0-3.5 3.5 5 5 0 0 1-10 0 3.5 3.5 0 0 0-7 0 12 12 0 0 0 24 0 3.5 3.5 0 0 0-3.5-3.5ZM119.777 70.799a3.5 3.5 0 1 0-4.888 5.01l4.317 4.213a3.5 3.5 0 1 0 4.889-5.01ZM285.5 202a3.5 3.5 0 0 0-3.5 3.5 5 5 0 0 1-10 0 3.5 3.5 0 0 0-7 0 12 12 0 0 0 24 0 3.5 3.5 0 0 0-3.5-3.5Zm14-28a3.5 3.5 0 0 0-3.5 3.5 5 5 0 0 1-10 0 3.5 3.5 0 0 0-7 0 12 12 0 0 0 24 0 3.5 3.5 0 0 0-3.5-3.5Z"></path></svg>